<mxfile host="app.diagrams.net" modified="2024-07-12T06:32:15.286Z" agent="Mozilla/5.0 (Windows NT 10.0; Win64; x64) AppleWebKit/537.36 (KHTML, like Gecko) Chrome/126.0.0.0 Safari/537.36" etag="uF68Lh3GqGdT1nLvUZuF" version="24.6.5" type="device">
  <diagram name="Page-1" id="-9nSoXVNNwh2YimIt8uJ">
    <mxGraphModel dx="1120" dy="460" grid="1" gridSize="10" guides="1" tooltips="1" connect="1" arrows="1" fold="1" page="1" pageScale="1" pageWidth="850" pageHeight="1100" math="0" shadow="0">
      <root>
        <mxCell id="0" />
        <mxCell id="1" parent="0" />
        <mxCell id="VFZsDK8KloXWhPVoCf0J-1" value="" style="outlineConnect=0;dashed=0;verticalLabelPosition=bottom;verticalAlign=top;align=center;html=1;shape=mxgraph.aws3.users;fillColor=#D2D3D3;gradientColor=none;" vertex="1" parent="1">
          <mxGeometry x="20" y="190" width="66" height="63" as="geometry" />
        </mxCell>
        <mxCell id="VFZsDK8KloXWhPVoCf0J-2" value="Amazon Cloudfront" style="sketch=0;outlineConnect=0;fontColor=#232F3E;gradientColor=none;strokeColor=#ffffff;fillColor=#232F3E;dashed=0;verticalLabelPosition=middle;verticalAlign=bottom;align=center;html=1;whiteSpace=wrap;fontSize=10;fontStyle=1;spacing=3;shape=mxgraph.aws4.productIcon;prIcon=mxgraph.aws4.cloudfront;" vertex="1" parent="1">
          <mxGeometry x="140" y="180" width="80" height="110" as="geometry" />
        </mxCell>
        <mxCell id="VFZsDK8KloXWhPVoCf0J-3" value="Amazon S3" style="sketch=0;outlineConnect=0;fontColor=#232F3E;gradientColor=none;strokeColor=#ffffff;fillColor=#232F3E;dashed=0;verticalLabelPosition=middle;verticalAlign=bottom;align=center;html=1;whiteSpace=wrap;fontSize=10;fontStyle=1;spacing=3;shape=mxgraph.aws4.productIcon;prIcon=mxgraph.aws4.s3;" vertex="1" parent="1">
          <mxGeometry x="140" y="20.5" width="80" height="100" as="geometry" />
        </mxCell>
        <mxCell id="VFZsDK8KloXWhPVoCf0J-4" value="" style="outlineConnect=0;dashed=0;verticalLabelPosition=bottom;verticalAlign=top;align=center;html=1;shape=mxgraph.aws3.application_load_balancer;fillColor=#F58536;gradientColor=none;" vertex="1" parent="1">
          <mxGeometry x="300" y="190" width="69" height="72" as="geometry" />
        </mxCell>
        <mxCell id="VFZsDK8KloXWhPVoCf0J-5" value="Amazon ECS" style="sketch=0;outlineConnect=0;fontColor=#232F3E;gradientColor=none;strokeColor=#ffffff;fillColor=#232F3E;dashed=0;verticalLabelPosition=middle;verticalAlign=bottom;align=center;html=1;whiteSpace=wrap;fontSize=10;fontStyle=1;spacing=3;shape=mxgraph.aws4.productIcon;prIcon=mxgraph.aws4.ecs;" vertex="1" parent="1">
          <mxGeometry x="460" y="350" width="80" height="100" as="geometry" />
        </mxCell>
        <mxCell id="VFZsDK8KloXWhPVoCf0J-6" value="Amazon ECR" style="sketch=0;outlineConnect=0;fontColor=#232F3E;gradientColor=none;strokeColor=#ffffff;fillColor=#232F3E;dashed=0;verticalLabelPosition=middle;verticalAlign=bottom;align=center;html=1;whiteSpace=wrap;fontSize=10;fontStyle=1;spacing=3;shape=mxgraph.aws4.productIcon;prIcon=mxgraph.aws4.ecr;" vertex="1" parent="1">
          <mxGeometry x="270" y="365" width="80" height="100" as="geometry" />
        </mxCell>
        <mxCell id="VFZsDK8KloXWhPVoCf0J-7" value="AWS Fargate" style="sketch=0;outlineConnect=0;fontColor=#232F3E;gradientColor=none;strokeColor=#ffffff;fillColor=#232F3E;dashed=0;verticalLabelPosition=middle;verticalAlign=bottom;align=center;html=1;whiteSpace=wrap;fontSize=10;fontStyle=1;spacing=3;shape=mxgraph.aws4.productIcon;prIcon=mxgraph.aws4.fargate;" vertex="1" parent="1">
          <mxGeometry x="440" y="190" width="80" height="100" as="geometry" />
        </mxCell>
        <mxCell id="VFZsDK8KloXWhPVoCf0J-8" value="" style="outlineConnect=0;dashed=0;verticalLabelPosition=bottom;verticalAlign=top;align=center;html=1;shape=mxgraph.aws3.dynamo_db;fillColor=#2E73B8;gradientColor=none;" vertex="1" parent="1">
          <mxGeometry x="720" y="30" width="72" height="81" as="geometry" />
        </mxCell>
        <mxCell id="VFZsDK8KloXWhPVoCf0J-9" value="" style="outlineConnect=0;dashed=0;verticalLabelPosition=bottom;verticalAlign=top;align=center;html=1;shape=mxgraph.aws3.dynamo_db;fillColor=#2E73B8;gradientColor=none;" vertex="1" parent="1">
          <mxGeometry x="720" y="185.5" width="72" height="81" as="geometry" />
        </mxCell>
        <mxCell id="VFZsDK8KloXWhPVoCf0J-10" value="" style="outlineConnect=0;dashed=0;verticalLabelPosition=bottom;verticalAlign=top;align=center;html=1;shape=mxgraph.aws3.dynamo_db;fillColor=#2E73B8;gradientColor=none;" vertex="1" parent="1">
          <mxGeometry x="720" y="350" width="72" height="81" as="geometry" />
        </mxCell>
        <mxCell id="VFZsDK8KloXWhPVoCf0J-11" value="" style="outlineConnect=0;dashed=0;verticalLabelPosition=bottom;verticalAlign=top;align=center;html=1;shape=mxgraph.aws3.virtual_private_cloud;fillColor=#F58534;gradientColor=none;" vertex="1" parent="1">
          <mxGeometry x="7" width="79.5" height="54" as="geometry" />
        </mxCell>
        <mxCell id="VFZsDK8KloXWhPVoCf0J-13" value="" style="edgeStyle=orthogonalEdgeStyle;html=1;endArrow=block;elbow=vertical;startArrow=none;endFill=1;strokeColor=#545B64;rounded=0;" edge="1" parent="1">
          <mxGeometry width="100" relative="1" as="geometry">
            <mxPoint x="86" y="220" as="sourcePoint" />
            <mxPoint x="136" y="220" as="targetPoint" />
          </mxGeometry>
        </mxCell>
        <mxCell id="VFZsDK8KloXWhPVoCf0J-14" value="" style="edgeStyle=orthogonalEdgeStyle;html=1;endArrow=block;elbow=vertical;startArrow=none;endFill=1;strokeColor=#545B64;rounded=0;" edge="1" parent="1" source="VFZsDK8KloXWhPVoCf0J-2">
          <mxGeometry width="100" relative="1" as="geometry">
            <mxPoint x="240" y="221" as="sourcePoint" />
            <mxPoint x="300" y="221" as="targetPoint" />
            <Array as="points">
              <mxPoint x="220" y="220" />
              <mxPoint x="220" y="220" />
            </Array>
          </mxGeometry>
        </mxCell>
        <mxCell id="VFZsDK8KloXWhPVoCf0J-15" value="" style="edgeStyle=orthogonalEdgeStyle;html=1;endArrow=block;elbow=vertical;startArrow=none;endFill=1;strokeColor=#545B64;rounded=0;" edge="1" parent="1" source="VFZsDK8KloXWhPVoCf0J-2">
          <mxGeometry width="100" relative="1" as="geometry">
            <mxPoint x="160" y="160.5" as="sourcePoint" />
            <mxPoint x="180" y="111" as="targetPoint" />
          </mxGeometry>
        </mxCell>
        <mxCell id="VFZsDK8KloXWhPVoCf0J-18" value="" style="edgeStyle=orthogonalEdgeStyle;html=1;endArrow=block;elbow=vertical;startArrow=none;endFill=1;strokeColor=#545B64;rounded=0;" edge="1" parent="1">
          <mxGeometry width="100" relative="1" as="geometry">
            <mxPoint x="380" y="221" as="sourcePoint" />
            <mxPoint x="440" y="221" as="targetPoint" />
          </mxGeometry>
        </mxCell>
        <mxCell id="VFZsDK8KloXWhPVoCf0J-19" value="" style="verticalLabelPosition=bottom;html=1;verticalAlign=top;align=center;strokeColor=none;fillColor=#00BEF2;shape=mxgraph.azure.github_code;pointerEvents=1;" vertex="1" parent="1">
          <mxGeometry x="28" y="360" width="50" height="50" as="geometry" />
        </mxCell>
        <mxCell id="VFZsDK8KloXWhPVoCf0J-24" value="" style="edgeStyle=orthogonalEdgeStyle;html=1;endArrow=block;elbow=vertical;startArrow=none;endFill=1;strokeColor=#545B64;rounded=0;" edge="1" parent="1">
          <mxGeometry width="100" relative="1" as="geometry">
            <mxPoint x="110" y="390" as="sourcePoint" />
            <mxPoint x="210" y="390" as="targetPoint" />
          </mxGeometry>
        </mxCell>
        <mxCell id="VFZsDK8KloXWhPVoCf0J-25" value="" style="edgeStyle=orthogonalEdgeStyle;html=1;endArrow=block;elbow=vertical;startArrow=block;startFill=1;endFill=1;strokeColor=#545B64;rounded=0;" edge="1" parent="1">
          <mxGeometry width="100" relative="1" as="geometry">
            <mxPoint x="550" y="250" as="sourcePoint" />
            <mxPoint x="650" y="250" as="targetPoint" />
          </mxGeometry>
        </mxCell>
        <mxCell id="VFZsDK8KloXWhPVoCf0J-26" value="" style="endArrow=classic;startArrow=classic;html=1;rounded=0;" edge="1" parent="1">
          <mxGeometry width="50" height="50" relative="1" as="geometry">
            <mxPoint x="540" y="210" as="sourcePoint" />
            <mxPoint x="700" y="60" as="targetPoint" />
          </mxGeometry>
        </mxCell>
        <mxCell id="VFZsDK8KloXWhPVoCf0J-27" value="" style="endArrow=classic;startArrow=classic;html=1;rounded=0;" edge="1" parent="1">
          <mxGeometry width="50" height="50" relative="1" as="geometry">
            <mxPoint x="690" y="400" as="sourcePoint" />
            <mxPoint x="550" y="266.5" as="targetPoint" />
          </mxGeometry>
        </mxCell>
        <mxCell id="VFZsDK8KloXWhPVoCf0J-31" value="Push" style="text;html=1;align=center;verticalAlign=middle;whiteSpace=wrap;rounded=0;" vertex="1" parent="1">
          <mxGeometry x="120" y="350" width="60" height="30" as="geometry" />
        </mxCell>
        <mxCell id="VFZsDK8KloXWhPVoCf0J-32" value="Route 53" style="text;html=1;align=center;verticalAlign=middle;whiteSpace=wrap;rounded=0;" vertex="1" parent="1">
          <mxGeometry x="80" y="180" width="60" height="30" as="geometry" />
        </mxCell>
        <mxCell id="VFZsDK8KloXWhPVoCf0J-33" value="Products Dynamo DB" style="text;html=1;align=center;verticalAlign=middle;whiteSpace=wrap;rounded=0;" vertex="1" parent="1">
          <mxGeometry x="732" y="121" width="60" height="30" as="geometry" />
        </mxCell>
        <mxCell id="VFZsDK8KloXWhPVoCf0J-34" value="Orders DynamoDB" style="text;html=1;align=center;verticalAlign=middle;whiteSpace=wrap;rounded=0;" vertex="1" parent="1">
          <mxGeometry x="726" y="280" width="60" height="30" as="geometry" />
        </mxCell>
        <mxCell id="VFZsDK8KloXWhPVoCf0J-35" value="Cart Dynamo DB" style="text;html=1;align=center;verticalAlign=middle;whiteSpace=wrap;rounded=0;" vertex="1" parent="1">
          <mxGeometry x="740" y="435" width="60" height="30" as="geometry" />
        </mxCell>
        <mxCell id="VFZsDK8KloXWhPVoCf0J-36" value="/api/*" style="text;html=1;align=center;verticalAlign=middle;whiteSpace=wrap;rounded=0;" vertex="1" parent="1">
          <mxGeometry x="250" y="190" width="60" height="30" as="geometry" />
        </mxCell>
        <mxCell id="VFZsDK8KloXWhPVoCf0J-39" value="Update Task Defination" style="text;html=1;align=center;verticalAlign=middle;whiteSpace=wrap;rounded=0;" vertex="1" parent="1">
          <mxGeometry x="440" y="310" width="60" height="30" as="geometry" />
        </mxCell>
        <mxCell id="VFZsDK8KloXWhPVoCf0J-41" value="" style="edgeStyle=orthogonalEdgeStyle;html=1;endArrow=block;elbow=vertical;startArrow=none;endFill=1;strokeColor=#545B64;rounded=0;" edge="1" parent="1">
          <mxGeometry width="100" relative="1" as="geometry">
            <mxPoint x="350" y="399.5" as="sourcePoint" />
            <mxPoint x="450" y="399.5" as="targetPoint" />
          </mxGeometry>
        </mxCell>
        <mxCell id="VFZsDK8KloXWhPVoCf0J-42" value="" style="edgeStyle=orthogonalEdgeStyle;html=1;endArrow=block;elbow=vertical;startArrow=none;endFill=1;strokeColor=#545B64;rounded=0;" edge="1" parent="1" source="VFZsDK8KloXWhPVoCf0J-5" target="VFZsDK8KloXWhPVoCf0J-7">
          <mxGeometry width="100" relative="1" as="geometry">
            <mxPoint x="420" y="320" as="sourcePoint" />
            <mxPoint x="520" y="320" as="targetPoint" />
            <Array as="points">
              <mxPoint x="480" y="270" />
              <mxPoint x="480" y="270" />
            </Array>
          </mxGeometry>
        </mxCell>
        <mxCell id="VFZsDK8KloXWhPVoCf0J-43" value="" style="outlineConnect=0;dashed=0;verticalLabelPosition=bottom;verticalAlign=top;align=center;html=1;shape=mxgraph.aws3.codedeploy;fillColor=#759C3E;gradientColor=none;" vertex="1" parent="1">
          <mxGeometry x="590" y="435" width="67.5" height="81" as="geometry" />
        </mxCell>
        <mxCell id="VFZsDK8KloXWhPVoCf0J-44" value="" style="outlineConnect=0;dashed=0;verticalLabelPosition=bottom;verticalAlign=top;align=center;html=1;shape=mxgraph.aws3.codebuild;fillColor=#759C3E;gradientColor=none;" vertex="1" parent="1">
          <mxGeometry x="103.5" y="435" width="76.5" height="93" as="geometry" />
        </mxCell>
        <mxCell id="VFZsDK8KloXWhPVoCf0J-45" value="codebuild" style="text;html=1;align=center;verticalAlign=middle;whiteSpace=wrap;rounded=0;" vertex="1" parent="1">
          <mxGeometry x="130" y="540" width="60" height="30" as="geometry" />
        </mxCell>
        <mxCell id="VFZsDK8KloXWhPVoCf0J-46" value="code deploy" style="text;html=1;align=center;verticalAlign=middle;whiteSpace=wrap;rounded=0;" vertex="1" parent="1">
          <mxGeometry x="593.75" y="528" width="60" height="30" as="geometry" />
        </mxCell>
        <mxCell id="VFZsDK8KloXWhPVoCf0J-48" value="Github" style="text;html=1;align=center;verticalAlign=middle;whiteSpace=wrap;rounded=0;" vertex="1" parent="1">
          <mxGeometry x="23" y="450" width="60" height="30" as="geometry" />
        </mxCell>
        <mxCell id="VFZsDK8KloXWhPVoCf0J-50" value="/*" style="text;html=1;align=center;verticalAlign=middle;whiteSpace=wrap;rounded=0;" vertex="1" parent="1">
          <mxGeometry x="120" y="130" width="60" height="30" as="geometry" />
        </mxCell>
      </root>
    </mxGraphModel>
  </diagram>
</mxfile>
